<svg width="19" height="21" viewBox="0 0 19 21" fill="none" xmlns="http://www.w3.org/2000/svg">
<path fill-rule="evenodd" clip-rule="evenodd" d="M8.87043 13.093C9.26838 13.483 9.91122 13.483 10.3092 13.093L16.7987 6.73304C17.1967 6.34304 17.1967 5.71304 16.7987 5.32304L11.7479 0.373039C11.3601 -0.0269608 10.7173 -0.0269608 10.3194 0.363039L3.81958 6.73304C3.42163 7.12304 3.42163 7.75304 3.81958 8.14304L8.87043 13.093ZM14.9724 11.073H15.6662L18.7273 14.073V18.073C18.7273 19.183 17.809 20.073 16.6866 20.073H2.39114C1.26873 20.073 0.360596 19.173 0.360596 18.073V14.073L3.42172 11.073H4.26863L6.30938 13.073H4.21761L2.40135 15.073H16.6866L14.8805 13.073H12.9316L14.9724 11.073ZM2.40135 18.073H16.6866V17.073H2.40135V18.073ZM14.6459 6.02291L11.0337 2.48291L5.98287 7.43291L9.595 10.9729L14.6459 6.02291Z" fill="url(#paint0_linear)"/>
<defs>
<linearGradient id="paint0_linear" x1="14.1034" y1="-6.94084" x2="-7.00509" y2="-1.14139" gradientUnits="userSpaceOnUse">
<stop stop-color="#FF6746"/>
<stop offset="1" stop-color="#FF0546"/>
</linearGradient>
</defs>
</svg>
