<?xml version="1.0" standalone="no"?>
<!DOCTYPE svg PUBLIC "-//W3C//DTD SVG 20010904//EN"
 "http://www.w3.org/TR/2001/REC-SVG-20010904/DTD/svg10.dtd">
<svg version="1.0" xmlns="http://www.w3.org/2000/svg"
 width="2709.000000pt" height="2709.000000pt" viewBox="0 0 2709.000000 2709.000000"
 preserveAspectRatio="xMidYMid meet">

<g transform="translate(0.000000,2709.000000) scale(0.100000,-0.100000)"
fill="#000000" stroke="none">
<path d="M14280 18451 c-139 -238 -5700 -9875 -5700 -9878 0 -2 392 -2 871 -1
l872 3 2261 3916 c1244 2154 2264 3914 2267 3910 4 -3 127 -455 273 -1003
l266 -998 -1675 -2902 c-921 -1597 -1675 -2907 -1675 -2913 0 -7 295 -10 866
-10 l866 0 1086 1879 c597 1034 1087 1875 1089 1870 1 -5 228 -848 503 -1874
276 -1025 504 -1868 506 -1872 3 -4 354 -8 781 -8 l776 0 -6 29 c-3 16 -340
1275 -747 2797 -408 1523 -742 2776 -742 2784 0 8 237 427 527 930 290 503
529 921 532 928 4 9 -156 12 -779 12 l-783 0 -324 1203 c-179 661 -328 1217
-333 1235 l-9 32 -764 0 -764 0 -41 -69z"/>
</g>
</svg>