<svg width="30" height="23" viewBox="0 0 30 23" fill="none" xmlns="http://www.w3.org/2000/svg">
<path d="M26.868 2.89526L29.1544 0.705806V0.226562H21.2339L15.5889 14.2907L9.16677 0.226562H0.861762V0.705806L3.53259 3.92426C3.79287 4.16209 3.92898 4.50987 3.89435 4.86004V17.508C3.97674 17.9633 3.82869 18.4318 3.50871 18.7629L0.5 22.4128V22.886H9.03066V22.4068L6.02194 18.7629C5.696 18.4306 5.54198 17.9705 5.60765 17.508V6.56787L13.096 22.892H13.9664L20.4053 6.56787V19.572C20.4053 19.915 20.4053 19.9855 20.1808 20.2102L17.8646 22.4534V22.9338H29.1019V22.4546L26.8692 20.2663C26.6734 20.1181 26.5719 19.8695 26.6137 19.6281V3.53346C26.5719 3.29085 26.6722 3.04226 26.868 2.89526Z" fill="white"/>
</svg>
