<svg width="21" height="15" viewBox="0 0 21 15" fill="none" xmlns="http://www.w3.org/2000/svg">
<path fill-rule="evenodd" clip-rule="evenodd" d="M7.50322 7.85889C9.47254 7.85889 11.0745 6.28889 11.0745 4.35889C11.0745 2.42889 9.47254 0.858887 7.50322 0.858887C5.5339 0.858887 3.93191 2.42889 3.93191 4.35889C3.93191 6.28889 5.5339 7.85889 7.50322 7.85889ZM7.50322 2.85889C8.35013 2.85889 9.03378 3.52889 9.03378 4.35889C9.03378 5.18889 8.35013 5.85889 7.50322 5.85889C6.65631 5.85889 5.97266 5.18889 5.97266 4.35889C5.97266 3.52889 6.65631 2.85889 7.50322 2.85889ZM3.18703 12.8589H7.55424C7.52363 13.0189 7.50322 13.1889 7.50322 13.3589V14.8589H0.360596V13.3589C0.360596 11.0289 5.11554 9.85889 7.50322 9.85889C8.07463 9.85889 8.77869 9.92889 9.52356 10.0589C8.7991 10.5389 8.19708 11.1389 7.85015 11.8689C7.79405 11.8689 7.7354 11.8664 7.67675 11.8639L7.67668 11.8639L7.67661 11.8639C7.61797 11.8614 7.55932 11.8589 7.50322 11.8589C5.94205 11.8589 4.19721 12.3589 3.18703 12.8589ZM15.156 10.3589C13.2785 10.3589 9.54397 11.3689 9.54397 13.3589V14.8589H20.7681V13.3589C20.7681 11.3689 17.0335 10.3589 15.156 10.3589ZM17.707 6.35889C17.707 7.29889 17.1662 8.10889 16.3907 8.53889C16.0234 8.73889 15.605 8.85889 15.156 8.85889C14.7071 8.85889 14.2887 8.73889 13.9214 8.53889C13.1459 8.10889 12.6051 7.29889 12.6051 6.35889C12.6051 4.97889 13.7479 3.85889 15.156 3.85889C16.5641 3.85889 17.707 4.97889 17.707 6.35889Z" fill="url(#paint0_linear)"/>
<defs>
<linearGradient id="paint0_linear" x1="15.6304" y1="-4.04965" x2="-5.56279" y2="5.19331" gradientUnits="userSpaceOnUse">
<stop stop-color="#FF6746"/>
<stop offset="1" stop-color="#FF0546"/>
</linearGradient>
</defs>
</svg>
