<svg width="22" height="19" viewBox="0 0 22 19" fill="none" xmlns="http://www.w3.org/2000/svg">
  <path d="M14.7098 5.4442C18.0715 5.4442 20.7967 4.47091 20.7967 3.27029C20.7967 2.06967 18.0715 1.09637 14.7098 1.09637C11.3481 1.09637 8.62283 2.06967 8.62283 3.27029C8.62283 4.47091 11.3481 5.4442 14.7098 5.4442Z" stroke="#E64347" stroke-width="1.5" stroke-miterlimit="10"/>
  <path d="M20.7967 3.27026V5.44418C20.7967 6.66157 18.0576 7.61809 14.7098 7.61809C14.0141 7.61809 13.362 7.57461 12.7533 7.48765" stroke="#E64347" stroke-width="1.5" stroke-miterlimit="10" stroke-linecap="round"/>
  <path d="M20.275 6.31378C20.6228 6.57465 20.7967 6.879 20.7967 7.18335V7.61813C20.7967 8.83552 18.0576 9.79204 14.7098 9.79204C14.4489 9.79204 14.1446 9.79204 13.8837 9.79204" stroke="#E64347" stroke-width="1.5" stroke-miterlimit="10" stroke-linecap="round"/>
  <path d="M20.275 8.48767C20.6228 8.74854 20.7968 9.05289 20.7968 9.35724V9.79202C20.7968 11.0094 18.0576 11.9659 14.7098 11.9659C14.5359 11.9659 14.4054 11.9659 14.2315 11.9659" stroke="#E64347" stroke-width="1.5" stroke-miterlimit="10" stroke-linecap="round"/>
  <path d="M20.275 10.6616C20.6228 10.9225 20.7968 11.2268 20.7968 11.5312V11.966C20.7968 13.1834 18.0576 14.1399 14.7098 14.1399C14.4489 14.1399 14.2315 14.1399 13.9707 14.1399" stroke="#E64347" stroke-width="1.5" stroke-miterlimit="10" stroke-linecap="round"/>
  <path d="M20.275 12.8355C20.6228 13.0964 20.7968 13.4007 20.7968 13.7051V14.1399C20.7968 15.3572 18.0576 16.3138 14.7098 16.3138C14.0576 16.3138 13.4489 16.2703 12.8402 16.2268" stroke="#E64347" stroke-width="1.5" stroke-miterlimit="10" stroke-linecap="round"/>
  <path d="M6.88371 18.0529C10.2454 18.0529 12.9707 15.3277 12.9707 11.9659C12.9707 8.60419 10.2454 5.87897 6.88371 5.87897C3.52198 5.87897 0.796753 8.60419 0.796753 11.9659C0.796753 15.3277 3.52198 18.0529 6.88371 18.0529Z" stroke="#E64347" stroke-width="1.5" stroke-miterlimit="10"/>
  <path d="M5.57937 13.2703V13.7051C5.57937 14.1834 5.97067 14.5747 6.44893 14.5747H7.3185C7.79676 14.5747 8.18806 14.1834 8.18806 13.7051V13.0094C8.18806 12.6181 7.92719 12.3138 7.57937 12.1834L6.14458 11.7051C5.79676 11.5747 5.53589 11.2703 5.53589 10.879V10.6616C5.53589 10.1834 5.92719 9.79205 6.40545 9.79205H7.27502C7.75328 9.79205 8.14458 10.1834 8.14458 10.6616V11.0964" stroke="#E64347" stroke-width="1.5" stroke-miterlimit="10"/>
  <path d="M6.8837 9.79202V8.48767" stroke="#E64347" stroke-width="1.5" stroke-miterlimit="10"/>
  <path d="M6.8837 14.5746V15.879" stroke="#E64347" stroke-width="1.5" stroke-miterlimit="10"/>
  <path d="M8.62283 3.27026V4.57461" stroke="#E64347" stroke-width="1.5" stroke-miterlimit="10" stroke-linecap="round"/>
</svg>
