<svg width="30" height="25" viewBox="0 0 30 25" fill="none" xmlns="http://www.w3.org/2000/svg">
<path d="M29.2818 3.64473C28.2101 4.11482 27.0682 4.42641 25.8777 4.57771C27.1024 3.84645 28.0372 2.69734 28.4767 1.31228C27.3348 1.9931 26.074 2.474 24.7303 2.74236C23.6461 1.58785 22.1007 0.872803 20.4149 0.872803C17.144 0.872803 14.5108 3.52765 14.5108 6.78228C14.5108 7.25057 14.5504 7.70085 14.6477 8.12951C9.73603 7.88996 5.38993 5.5359 2.47031 1.94987C1.9606 2.83422 1.66161 3.84645 1.66161 4.93613C1.66161 6.9822 2.71527 8.79593 4.28584 9.84598C3.33665 9.82797 2.40547 9.5524 1.61658 9.11833C1.61658 9.13634 1.61658 9.15975 1.61658 9.18317C1.61658 12.0542 3.66446 14.4388 6.34993 14.9882C5.86903 15.1197 5.3449 15.1827 4.80096 15.1827C4.42273 15.1827 4.04089 15.1611 3.68247 15.0818C4.44794 17.4215 6.62009 19.1416 9.2029 19.1974C7.19285 20.7698 4.64066 21.7172 1.87775 21.7172C1.39324 21.7172 0.928556 21.6955 0.463867 21.6361C3.08089 23.3238 6.18242 24.2874 9.5271 24.2874C20.3987 24.2874 26.3424 15.2818 26.3424 7.47571C26.3424 7.21454 26.3333 6.96239 26.3207 6.71203C27.4933 5.87991 28.4785 4.84067 29.2818 3.64473Z" fill="white"/>
</svg>
