<svg width="25" height="18" viewBox="0 0 25 18" fill="none" xmlns="http://www.w3.org/2000/svg">
  <path d="M23.7175 5.29926H1.71753V16.7775H23.7175V5.29926Z" stroke="#E64347" stroke-width="1.5" stroke-miterlimit="10"/>
  <path d="M3.15228 3.38629H22.2827" stroke="#E64347" stroke-width="1.5" stroke-miterlimit="10"/>
  <path d="M20.3697 1.47321H5.06537" stroke="#E64347" stroke-width="1.5" stroke-miterlimit="10"/>
  <path d="M19.8914 14.8645H5.54361C5.54361 14.0515 4.92187 13.4297 4.10883 13.4297V8.64712C4.92187 8.64712 5.54361 8.16886 5.54361 7.21234H19.8914C19.8914 8.16886 20.5132 8.64712 21.3262 8.64712V13.4297C20.5132 13.4297 19.8914 14.0515 19.8914 14.8645Z" stroke="#E64347" stroke-width="1.5" stroke-miterlimit="10"/>
  <path d="M7.45667 11.0384H8.41319" stroke="#E64347" stroke-width="1.5" stroke-miterlimit="10"/>
  <path d="M17.0219 11.0384H17.9784" stroke="#E64347" stroke-width="1.5" stroke-miterlimit="10"/>
  <path d="M12.7175 12.9515C13.7741 12.9515 14.6306 12.095 14.6306 11.0385C14.6306 9.98193 13.7741 9.12543 12.7175 9.12543C11.661 9.12543 10.8045 9.98193 10.8045 11.0385C10.8045 12.095 11.661 12.9515 12.7175 12.9515Z" stroke="#E64347" stroke-width="1.5" stroke-miterlimit="10"/>
</svg>
